<svg viewBox="0 0 800 180" xmlns="http://www.w3.org/2000/svg" width="800" height="180">
  <defs>
    <clipPath id="bounds">
      <rect width="800" height="180"/>
    </clipPath>
    <style>
      .label { font-family: 'Segoe UI', sans-serif; font-size: 13px; font-weight: 600; fill: #e2e8f0; }
      .sub   { font-family: 'Segoe UI', sans-serif; font-size: 10px; fill: #94a3b8; }

      .row1 { animation: scrollLeft 18s linear infinite; }
      .row2 { animation: scrollLeft 12s linear infinite; }

      @keyframes scrollLeft {
        0%   { transform: translateX(0px); }
        100% { transform: translateX(-820px); }
      }
    </style>
  </defs>

  <rect width="800" height="180" fill="#0d1117" rx="16"/>

  <g clip-path="url(#bounds)">

    <!-- ROW 1 slow (y=14) -->
    <g class="row1">
      <g transform="translate(0, 14)">
        <rect width="160" height="54" rx="12" fill="#1e293b" stroke="#334155" stroke-width="1"/>
        <text x="14" y="23" font-size="16">🤖</text>
        <text x="38" y="23" class="label">Claude Code</text>
        <text x="38" y="38" class="sub">Agentic coding</text>
      </g>
      <g transform="translate(190, 14)">
        <rect width="170" height="54" rx="12" fill="#0f2027" stroke="#00D4FF" stroke-width="1"/>
        <text x="14" y="23" font-size="16">🛡️</text>
        <text x="38" y="23" class="label">Self-Healing CI/CD</text>
        <text x="38" y="38" class="sub">Autonomous DevOps</text>
      </g>
      <g transform="translate(380, 14)">
        <rect width="160" height="54" rx="12" fill="#fffed29" stroke="#FFED29" stroke-width="1"/>
        <text x="14" y="23" font-size="16">🤖</text>
        <text x="38" y="23" class="label">Agentic workflows</text>
        <text x="38" y="38" class="sub">Python code</text>
      </g>
      <g transform="translate(560, 14)">
        <rect width="150" height="54" rx="12" fill="#1e1a2e" stroke="#4c1d95" stroke-width="1"/>
        <text x="14" y="23" font-size="16">⚙️</text>
        <text x="38" y="23" class="label">n8n Workflows</text>
        <text x="38" y="38" class="sub">Multi-agent pipes</text>
      </g>
      <g transform="translate(690, 14)">
        <rect width="140" height="54" rx="12" fill="#1a1a2e" stroke="#EE342F" stroke-width="1"/>
        <text x="14" y="23" font-size="16">🗄️</text>
        <text x="38" y="23" class="label">Convex</text>
        <text x="38" y="38" class="sub">Real-time backend</text>
      </g>
      <!-- Seamless repeat -->
      <g transform="translate(840, 14)">
        <rect width="160" height="54" rx="12" fill="#1e293b" stroke="#334155" stroke-width="1"/>
        <text x="14" y="23" font-size="16">🤖</text>
        <text x="38" y="23" class="label">Claude Code</text>
        <text x="38" y="38" class="sub">Agentic coding</text>
      </g>
      <g transform="translate(1010, 14)">
        <rect width="170" height="54" rx="12" fill="#0f2027" stroke="#00D4FF" stroke-width="1"/>
        <text x="14" y="23" font-size="16">🛡️</text>
        <text x="38" y="23" class="label">Self-Healing CI/CD</text>
        <text x="38" y="38" class="sub">Autonomous DevOps</text>
      </g>
      <g transform="translate(1210, 14)">
        <rect width="140" height="54" rx="12" fill="#1a1a2e" stroke="#EE342F" stroke-width="1"/>
        <text x="14" y="23" font-size="16">🗄️</text>
        <text x="38" y="23" class="label">Convex</text>
        <text x="38" y="38" class="sub">Real-time backend</text>
      </g>
      <g transform="translate(1380, 14)">
        <rect width="150" height="54" rx="12" fill="#1e1a2e" stroke="#4c1d95" stroke-width="1"/>
        <text x="14" y="23" font-size="16">⚙️</text>
        <text x="38" y="23" class="label">n8n Workflows</text>
        <text x="38" y="38" class="sub">Multi-agent pipes</text>
      </g>
    </g>

    <!-- ROW 2 fast (y=98, offset start so rows feel staggered) -->
    <g class="row2" transform="translate(-200, 0)">
      <g transform="translate(0, 98)">
        <rect width="160" height="54" rx="12" fill="#0c2a3a" stroke="#2CA5E0" stroke-width="1"/>
        <text x="14" y="23" font-size="16">💬</text>
        <text x="38" y="23" class="label">Telegram + LINE</text>
        <text x="38" y="38" class="sub">Bot architecture</text>
      </g>
      <g transform="translate(190, 98)">
        <rect width="130" height="54" rx="12" fill="#1a2e1a" stroke="#22c55e" stroke-width="1"/>
        <text x="14" y="23" font-size="16">🔌</text>
        <text x="38" y="23" class="label">MCP Servers</text>
        <text x="38" y="38" class="sub">Tool orchestration</text>
      </g>
      <g transform="translate(350, 98)">
        <rect width="120" height="54" rx="12" fill="#1a2035" stroke="#2C4F7C" stroke-width="1"/>
        <text x="14" y="23" font-size="16">⚡</text>
        <text x="38" y="23" class="label">SolidJS</text>
        <text x="38" y="38" class="sub">Reactive UI</text>
      </g>
      <g transform="translate(500, 98)">
        <rect width="120" height="54" rx="12" fill="#1a1a2e" stroke="#7c3aed" stroke-width="1"/>
        <text x="14" y="23" font-size="16">🔐</text>
        <text x="38" y="23" class="label">Clerk</text>
        <text x="38" y="38" class="sub">Zero-config auth</text>
      </g>
      <g transform="translate(650, 98)">
        <rect width="145" height="54" rx="12" fill="#1a1e2e" stroke="#3b82f6" stroke-width="1"/>
        <text x="14" y="23" font-size="16">📱</text>
        <text x="38" y="23" class="label">React Native</text>
        <text x="38" y="38" class="sub">Cross-platform</text>
      </g>
      <!-- Seamless repeat -->
      <g transform="translate(820, 98)">
        <rect width="160" height="54" rx="12" fill="#0c2a3a" stroke="#2CA5E0" stroke-width="1"/>
        <text x="14" y="23" font-size="16">💬</text>
        <text x="38" y="23" class="label">Telegram + LINE</text>
        <text x="38" y="38" class="sub">Bot architecture</text>
      </g>
      <g transform="translate(1010, 98)">
        <rect width="130" height="54" rx="12" fill="#1a2e1a" stroke="#22c55e" stroke-width="1"/>
        <text x="14" y="23" font-size="16">🔌</text>
        <text x="38" y="23" class="label">MCP Servers</text>
        <text x="38" y="38" class="sub">Tool orchestration</text>
      </g>
      <g transform="translate(1170, 98)">
        <rect width="120" height="54" rx="12" fill="#1a2035" stroke="#2C4F7C" stroke-width="1"/>
        <text x="14" y="23" font-size="16">⚡</text>
        <text x="38" y="23" class="label">SolidJS</text>
        <text x="38" y="38" class="sub">Reactive UI</text>
      </g>
      <g transform="translate(1320, 98)">
        <rect width="120" height="54" rx="12" fill="#1a1a2e" stroke="#7c3aed" stroke-width="1"/>
        <text x="14" y="23" font-size="16">🔐</text>
        <text x="38" y="23" class="label">Clerk</text>
        <text x="38" y="38" class="sub">Zero-config auth</text>
      </g>
      <g transform="translate(1470, 98)">
        <rect width="145" height="54" rx="12" fill="#1a1e2e" stroke="#3b82f6" stroke-width="1"/>
        <text x="14" y="23" font-size="16">📱</text>
        <text x="38" y="23" class="label">React Native</text>
        <text x="38" y="38" class="sub">Cross-platform</text>
      </g>
    </g>

  </g>
</svg>
